PathFileType	4	(X/Y/Z)	OpenSim_Sub01_EMGStiffKnee_Gyro.trc
DataRate	CameraRate	NumFrames	NumMarkers	Units	OrigDataRate	OrigDataStartFrame	OrigNumFrames
100	100	27	8	m	100	1392	5567
Frame#	Time	torso_imu_offset_imu	pelvis_imu_offset_imu	tibia_r_imu_offset_imu	femur_r_imu_offset_imu	tibia_l_imu_offset_imu	femur_l_imu_offset_imu	toes_r_imu_offset_imu	toes_l_imu_offset_imu
				X1	Y1	Z1	X2	Y2	Z2	X3	Y3	Z3	X4	Y4	Z4	X5	Y5	Z5	X6	Y6	Z6	X7	Y7	Z7	X8		Y8	Z8	

1392	13.91000000	-0.21943605	-0.24546667	-0.14064518	-0.01097996	0.27667744	0.10570255	0.73459939	0.56881452	4.82456939	-0.49811800	-0.26555489	0.35909840	0.29956869	0.07395558	0.82392903	-0.04746018	-0.29987075	0.64103712	0.05413313	4.45909857	0.64254149	0.12394217	-0.42646460	0.12786497
1393	13.92000000	-0.18709065	-0.23072274	-0.12125712	0.03753897	0.23570996	0.11349720	0.66387933	0.56858382	4.83988321	-0.59151586	-0.24078043	0.23271737	0.23625740	0.08900811	0.82789074	-0.11500569	-0.29979041	0.61268076	0.16310305	4.11445015	0.58274163	0.10507657	-0.42928474	0.16810937
1394	13.93000000	-0.15709508	-0.22284778	-0.10331401	0.08427770	0.16426860	0.11577900	0.61326252	0.58051084	4.82781961	-0.66810902	-0.19120131	0.13183927	0.19615628	0.09451939	0.83587184	-0.17750120	-0.31763267	0.58589144	0.19706956	3.76132347	0.67686632	0.09398779	-0.43296870	0.21169455
1395	13.94000000	-0.12593652	-0.22262078	-0.08667103	0.12776490	0.07959539	0.10665870	0.60847616	0.58563787	4.75897341	-0.68834728	-0.12424952	0.06830286	0.19608322	0.08723977	0.84447777	-0.21705590	-0.34734332	0.57398574	0.13094914	3.46903717	0.92519914	0.08907747	-0.44357783	0.24700400
1396	13.95000000	-0.09133476	-0.22890294	-0.07097256	0.16645869	0.00060855	0.08326526	0.65768440	0.57361229	4.61058652	-0.62724000	-0.05352141	0.04430438	0.24273281	0.06816999	0.85184679	-0.22324718	-0.38283465	0.58454250	-0.02832396	3.28851474	1.30638777	0.08887812	-0.46599319	0.26433504
1397	13.96000000	-0.05487910	-0.23492988	-0.05533437	0.19855692	-0.04993409	0.05171795	0.71855551	0.56113192	4.38059511	-0.50534564	-0.01062992	0.03331155	0.31269253	0.05090901	0.86111421	-0.20784320	-0.41826617	0.60824133	-0.17985504	3.21465049	1.73682898	0.09274400	-0.50145306	0.25984807
1398	13.97000000	-0.01883613	-0.23325542	-0.03878064	0.22241660	-0.05090519	0.01954912	0.74205574	0.56766169	4.07317554	-0.35196494	-0.02696183	0.00486872	0.37731390	0.05038673	0.87632158	-0.18585853	-0.44789826	0.63285374	-0.21277746	3.22726338	2.12188448	0.09996251	-0.55029772	0.23163639
1399	13.98000000	0.01509790	-0.22179381	-0.02042796	0.23949600	-0.01619630	-0.00943678	0.71856229	0.57923853	3.72862778	-0.20120034	-0.08067930	-0.05070987	0.41289159	0.06659533	0.90124606	-0.15949550	-0.46681666	0.64938827	-0.12694904	3.23560099	2.37401095	0.10654753	-0.60950728	0.19049474
1400	13.99000000	0.04566561	-0.20258598	0.00053543	0.25364015	0.01335423	-0.03430400	0.66878534	0.55617494	3.41501937	-0.09084261	-0.10899268	-0.12711870	0.39953584	0.08803089	0.93945882	-0.12109648	-0.47074471	0.65134760	-0.00747052	3.09462676	2.41115882	0.10599526	-0.67347616	0.15699011
1401	14.00000000	0.07136507	-0.17802759	0.02415564	0.26793844	0.01059579	-0.05288253	0.60668965	0.46948987	3.14754904	-0.04806957	-0.07546406	-0.21424025	0.33108002	0.10677179	0.99121735	-0.06671957	-0.45845022	0.63534456	0.04910210	2.71343916	2.19393358	0.09474129	-0.73774473	0.14484120
1402	14.01000000	0.08993411	-0.15125283	0.04820925	0.28305239	-0.00889053	-0.05911538	0.52387811	0.32398182	2.78219753	-0.06824156	-0.02508773	-0.29185219	0.24184323	0.12641979	1.04694862	-0.00421745	-0.43769858	0.60704283	-0.08130997	2.16614392	1.80926689	0.07814772	-0.80145615	0.14667057
1403	14.02000000	0.09914228	-0.12540641	0.07015243	0.29924938	-0.02274418	-0.04699116	0.40846126	0.13240894	2.15850307	-0.14185445	-0.01589495	-0.33652593	0.17209640	0.15225331	1.09625329	0.05657095	-0.41745733	0.57356474	-0.50637990	1.54953294	1.36128095	0.06291273	-0.86456635	0.15164060
1404	14.03000000	0.09933663	-0.10174657	0.08892588	0.31761510	-0.02537797	-0.02193299	0.25815642	-0.06682011	1.31043943	-0.27463714	-0.07571307	-0.30481147	0.13916724	0.18276027	1.14356408	0.10871517	-0.39979050	0.53881978	-1.01216415	0.84337117	0.86184744	0.05103144	-0.92922548	0.15550050
1405	14.04000000	0.09284950	-0.08007798	0.10461325	0.33986595	-0.02411013	0.00183783	0.07807426	-0.21557853	0.42162099	-0.48401799	-0.20911219	-0.13788014	0.14271998	0.21120264	1.20472463	0.14752775	-0.38144729	0.50424448	-1.13732024	-0.06258984	0.25187736	0.04087908	-0.99927302	0.15907024
1406	14.05000000	0.08359183	-0.05835061	0.11759058	0.36878259	-0.01768023	0.01539550	-0.12908070	-0.29209179	-0.36856218	-0.75189271	-0.41191712	0.17861498	0.17962320	0.23260111	1.28691497	0.17378835	-0.35838126	0.47160882	-0.65603142	-1.18240828	-0.45792273	0.03149209	-1.07878932	0.16368370
1407	14.06000000	0.08001343	-0.02911440	0.12901526	0.41025978	0.02164943	0.02622182	-0.36831873	-0.38411022	-1.06356688	-0.95368022	-0.65574434	0.52567139	0.23978845	0.24760159	1.37069958	0.20435015	-0.32458800	0.44386272	-0.06123714	-2.23744047	-1.04403041	0.02414833	-1.17244143	0.17181400
1408	14.07000000	0.09045701	0.01493691	0.14008980	0.46833741	0.12264163	0.04469307	-0.63669059	-0.58878935	-1.68535761	-0.95409454	-0.90437144	0.76241238	0.31259884	0.25811792	1.43309723	0.25707438	-0.27491490	0.42341983	0.06666668	-2.91613693	-1.26341163	0.02098676	-1.28554031	0.18527691
1409	14.08000000	0.10910634	0.06401963	0.15053027	0.51068650	0.25615027	0.07910526	-0.79080686	-0.84102178	-2.13765403	-0.75223203	-1.07125323	0.78955937	0.39877573	0.26947391	1.47170245	0.32043888	-0.22237127	0.40140588	-0.17294189	-3.22431717	-1.16981877	0.03083009	-1.43140959	0.19290014
1410	14.09000000	0.11924739	0.09520322	0.15890987	0.47701036	0.34846909	0.13614843	-0.57926819	-0.95085005	-2.23325355	-0.45062801	-1.03116767	0.53992617	0.50776109	0.28961557	1.49994718	0.36031555	-0.19393315	0.36026544	-0.15760822	-3.41201499	-1.04539048	0.06763577	-1.62953535	0.17352409
1411	14.10000000	0.10629416	0.09723516	0.16562441	0.34497222	0.34892393	0.21641457	0.11776782	-0.80502045	-1.91902621	-0.14273549	-0.73975983	0.04015185	0.63907431	0.32281135	1.52926682	0.35976352	-0.19790711	0.29325994	0.46347233	-3.60685365	-1.07130479	0.13157894	-1.89210793	0.12024309
1412	14.11000000	0.06281670	0.09456829	0.17657286	0.20716793	0.27868465	0.30249852	1.02097680	-0.52774144	-1.54717818	0.11288628	-0.39592137	-0.40678310	0.76208411	0.36220174	1.56395374	0.35464042	-0.18605718	0.22645580	1.19393626	-3.55405657	-1.11128631	0.18148940	-2.20916783	0.06926929
1413	14.12000000	-0.01573963	0.11622378	0.19774184	0.17113283	0.17162349	0.37382636	1.78619354	-0.28121135	-1.51653650	0.27280970	-0.22915664	-0.47031686	0.84165750	0.39930935	1.60652966	0.38822684	-0.10352436	0.18897661	1.41960097	-2.95847379	-0.98357575	0.17069747	-2.56666977	0.06286575
1414	14.13000000	-0.11070365	0.16080350	0.22120593	0.24998908	0.05292668	0.41219739	2.20330577	-0.13914851	-1.80218436	0.42349091	-0.25410382	-0.17166522	0.85871209	0.43223323	1.65278345	0.46880977	0.04723003	0.16493753	1.10698535	-1.97872969	-0.70404907	0.08462455	-2.95070883	0.11455302
1415	14.14000000	-0.18553202	0.20349834	0.22833753	0.38419008	-0.05890559	0.40124668	2.16546964	-0.10714865	-2.05309297	0.75127652	-0.32002919	0.19719179	0.80652457	0.46413163	1.69332282	0.57773962	0.21962744	0.10382185	0.66954503	-1.12263482	-0.44068007	-0.06659962	-3.34747848	0.21572777
1416	14.15000000	-0.21266084	0.22677115	0.20997999	0.52649857	-0.14493237	0.33636600	1.66696402	-0.17502568	-2.02518607	1.31997723	-0.31499254	0.38356505	0.68313902	0.49381600	1.72105447	0.69773317	0.37655589	-0.02491503	0.41497178	-0.73423110	-0.30929277	-0.26611825	-3.73040119	0.36006932
1417	14.16000000	-0.19257408	0.23648219	0.18593686	0.67180801	-0.18439198	0.24774093	0.99465258	-0.29090604	-1.81711486	1.82166276	-0.25496581	0.27221132	0.49982062	0.50679495	1.73611226	0.81762626	0.51240484	-0.18982516	0.30252666	-0.64424464	-0.25912675	-0.47897419	-4.03494376	0.54973069
1418	14.17000000	-0.13121290	0.24250268	0.18058206	0.82190315	-0.15831441	0.17097198	0.47420824	-0.39673966	-1.58493752	1.90204755	-0.17869445	-0.21309334	0.27402842	0.48672465	1.74065525	0.92723393	0.62690195	-0.34946937	0.23104571	-0.59951972	-0.21222514	-0.66905298	-4.19216332	0.78602186
